<svg xmlns="http://www.w3.org/2000/svg" id width="300" height="450" viewBox="0 0 300 450" fill="none">
  <path d="M130 360 Q 150 420 170 440" stroke="#5D4037" stroke-width="2"/>
  <path d="M150 360 Q 150 420 155 435" stroke="#5D4037" stroke-width="2"/>
  <path d="M170 360 Q 150 420 140 440" stroke="#5D4037" stroke-width="2"/>
  
  <path d="M100 245 Q 130 300 130 360" stroke="#5D4037" stroke-width="2"/>
  <path d="M200 245 Q 170 300 170 360" stroke="#5D4037" stroke-width="2"/>
  <path d="M150 150 Q 150 250 150 360" stroke="#5D4037" stroke-width="2"/>

  <g transform="translate(100, 210) rotate(-15)">
    <ellipse cx="0" cy="0" rx="50" ry="65" fill="#A855F7" stroke="black" stroke-width="2"/>
    <ellipse cx="-20" cy="-30" rx="10" ry="20" fill="white" opacity="0.5" transform="rotate(15)"/>
  </g>

  <g transform="translate(200, 180) rotate(15)">
    <ellipse cx="0" cy="0" rx="55" ry="70" fill="#FF3D71" stroke="black" stroke-width="2"/>
    <ellipse cx="-20" cy="-35" rx="12" ry="22" fill="white" opacity="0.5" transform="rotate(-10)"/>
  </g>

  <g transform="translate(140, 90)">
    <ellipse cx="0" cy="0" rx="50" ry="65" fill="#26C6DA" stroke="black" stroke-width="2"/>
    <ellipse cx="-20" cy="-30" rx="10" ry="20" fill="white" opacity="0.5"/>
  </g>
  
  <g transform="translate(150, 360)">
    <path d="M0 0 L -15 -10 L -15 10 Z" fill="#A855F7" stroke="black" stroke-width="2"/>
    <path d="M0 0 L 15 -10 L 15 10 Z" fill="#A855F7" stroke="black" stroke-width="2"/>
    <circle cx="0" cy="0" r="5" fill="#A855F7" stroke="black" stroke-width="2"/>
  </g>
</svg>